<?xml version="1.0" encoding="utf-8"?>
<!-- Generator: Adobe Illustrator 20.1.0, SVG Export Plug-In . SVG Version: 6.00 Build 0)  -->
<svg version="1.1" id="Camada_1" xmlns="http://www.w3.org/2000/svg" xmlns:xlink="http://www.w3.org/1999/xlink" x="0px" y="0px"
	 viewBox="0 0 100 55.8" style="enable-background:new 0 0 100 55.8;" xml:space="preserve">
<style type="text/css">
	.st0{fill:#532B7B;}
</style>
<g>
	<path class="st0" d="M94.9,52.2l-6.6-1.3c0-0.1,0-0.1,0-0.2v-46c-0.1-1.8-1.6-3.2-3.3-3.2H15c-1.8,0-3.3,1.5-3.3,3.3v45.9
		c0,0.1,0,0.1,0,0.2l-6.6,1.3C5,52.2,5,52.3,5,52.3c0,1.4,1.1,2.4,2.5,2.4h85.2C94,54.6,95,53.6,94.9,52.2
		C95,52.2,94.9,52.2,94.9,52.2z M50,2.2c0.3,0,0.5,0.2,0.5,0.5C50.4,3,50.2,3.2,50,3.2c-0.3,0-0.5-0.2-0.5-0.5S49.7,2.2,50,2.2z
		 M14,3.7h72v45H14V3.7z M54.8,52.2c0,0.3-0.2,0.5-0.5,0.5h-8.6c-0.3,0-0.5-0.2-0.5-0.5h-40l6.5-1.2c0.1,0.1,0.2,0.2,0.4,0.2h75.8
		c0.2,0,0.3-0.1,0.4-0.2l6.4,1.2H54.8z"/>
	<path class="st0" d="M54.3,51.7h-8.6c-0.3,0-0.4,0.2-0.4,0.5h9.5C54.8,51.8,54.6,51.7,54.3,51.7z"/>
</g>
<g>
	<path class="st0" d="M62.7,13.5c-7-7-18.4-7-25.5,0c-7,7-7,18.4,0,25.5s18.4,7,25.5,0C69.8,31.9,69.8,20.5,62.7,13.5z M38.7,37.5
		c-6.2-6.2-6.2-16.4,0-22.6s16.4-6.2,22.6,0s6.2,16.4,0,22.6C55.1,43.8,44.9,43.8,38.7,37.5z"/>
	<path class="st0" d="M45.8,22l-5.7,14.1l14.1-5.7l5.7-14.1L45.8,22z M51.4,27.6c-0.2,0.2-0.4,0.3-0.7,0.4l2.1,2.1l-11.3,4.5
		L46,23.4l2.1,2.1c0.1-0.2,0.2-0.5,0.4-0.7c0.8-0.8,2-0.8,2.8,0C52.2,25.6,52.2,26.8,51.4,27.6z"/>
</g>
</svg>
