<?xml version="1.0" encoding="utf-8"?>
<!-- Generator: Adobe Illustrator 20.1.0, SVG Export Plug-In . SVG Version: 6.00 Build 0)  -->
<svg version="1.1" id="Camada_1" xmlns="http://www.w3.org/2000/svg" xmlns:xlink="http://www.w3.org/1999/xlink" x="0px" y="0px"
	 viewBox="0 0 60 60" style="enable-background:new 0 0 60 60;" xml:space="preserve">
<style type="text/css">
	.st0{fill:#532B7B;}
</style>
<g>
	<path class="st0" d="M57.5,0h-55C1.1,0,0,1.1,0,2.5v55C0,58.9,1.1,60,2.5,60h55c1.4,0,2.5-1.1,2.5-2.5v-55C60,1.1,58.9,0,57.5,0z
		 M2.5,2h55C57.8,2,58,2.2,58,2.5V9H2V2.5C2,2.2,2.2,2,2.5,2z M57.5,58h-55C2.2,58,2,57.8,2,57.5V11h56v46.5
		C58,57.8,57.8,58,57.5,58z"/>
	<path class="st0" d="M6,7c0.8,0,1.5-0.7,1.5-1.5S6.8,4,6,4S4.5,4.7,4.5,5.5S5.2,7,6,7z M6,5c0.3,0,0.5,0.2,0.5,0.5S6.3,6,6,6
		S5.5,5.8,5.5,5.5S5.7,5,6,5z"/>
	<path class="st0" d="M11,7c0.8,0,1.5-0.7,1.5-1.5S11.8,4,11,4S9.5,4.7,9.5,5.5S10.2,7,11,7z M11,5c0.3,0,0.5,0.2,0.5,0.5
		S11.3,6,11,6s-0.5-0.2-0.5-0.5S10.7,5,11,5z"/>
	<path class="st0" d="M16,7c0.8,0,1.5-0.7,1.5-1.5S16.8,4,16,4s-1.5,0.7-1.5,1.5S15.2,7,16,7z M16,5c0.3,0,0.5,0.2,0.5,0.5
		S16.3,6,16,6c-0.3,0-0.5-0.2-0.5-0.5S15.7,5,16,5z"/>
	<path class="st0" d="M22,34c0.6,0,1-0.4,1-1c0-1.3,2.8-2.5,4-3l0.5-0.2c1-0.4,1.6-1.2,1.8-2.3c0.1-0.4-0.1-0.8-0.4-1
		c-0.9-0.6-1.4-1.5-1.4-2v-1c0-0.2-0.1-0.5-0.2-0.6c-0.3-0.3-0.5-0.7-0.6-0.9c0.5-0.1,0.8-0.5,0.8-1l0-1c0,0,0-1.1,0.6-1.8
		c0.4-0.4,1-0.6,1.9-0.6c0.8,0,1.4,0.2,1.8,0.6c0.7,0.7,0.7,1.8,0.7,1.9v1c0,0.5,0.4,0.9,0.8,1c-0.1,0.2-0.4,0.6-0.6,0.9
		c-0.1,0.2-0.2,0.4-0.2,0.6v1c0,0.5-0.5,1.4-1.4,2c-0.3,0.2-0.5,0.6-0.4,1c0.2,1,0.8,1.8,1.8,2.3L33,30c1.2,0.5,4,1.7,4,3
		c0,0.6,0.4,1,1,1s1-0.4,1-1c0-2.6-3.4-4-5.2-4.8L33.3,28c-0.2-0.1-0.3-0.2-0.4-0.3c1-0.9,1.6-2.1,1.6-3.2v-0.7
		c0.4-0.6,0.8-1.3,0.8-1.9c0-0.6-0.3-1.3-0.8-1.7V20c0-0.2,0-2-1.2-3.3c-0.8-0.8-1.9-1.3-3.3-1.3s-2.5,0.4-3.3,1.3
		c-1.2,1.3-1.2,3.1-1.2,3.2v0.3c-0.5,0.4-0.8,1-0.8,1.7c0,0.6,0.4,1.3,0.8,1.9v0.7c0,1.1,0.6,2.3,1.6,3.2c-0.1,0.1-0.2,0.2-0.4,0.3
		l-0.5,0.2C24.4,29,21,30.4,21,33C21,33.6,21.4,34,22,34z"/>
	<path class="st0" d="M22.5,37c-0.6,0-1,0.4-1,1s0.4,1,1,1h15c0.6,0,1-0.4,1-1s-0.4-1-1-1H22.5z"/>
	<path class="st0" d="M42,42H18c-0.6,0-1,0.4-1,1s0.4,1,1,1h24c0.6,0,1-0.4,1-1S42.6,42,42,42z"/>
	<path class="st0" d="M42,47H18c-0.6,0-1,0.4-1,1s0.4,1,1,1h24c0.6,0,1-0.4,1-1S42.6,47,42,47z"/>
	<path class="st0" d="M36,52H24c-0.6,0-1,0.4-1,1s0.4,1,1,1h12c0.6,0,1-0.4,1-1S36.6,52,36,52z"/>
</g>
</svg>
