<svg xmlns:sketch="http://www.bohemiancoding.com/sketch/ns" xmlns="http://www.w3.org/2000/svg" xmlns:xlink="http://www.w3.org/1999/xlink" version="1.1" x="0px" y="0px" viewBox="0 0 100 125" enable-background="new 0 0 100 100" xml:space="preserve"><title>layout v7</title><desc>Created with Sketch.</desc><circle sketch:type="MSShapeGroup" cx="22.5" cy="10.5" r="1.5"/><circle sketch:type="MSShapeGroup" cx="17.5" cy="10.5" r="1.5"/><circle sketch:type="MSShapeGroup" cx="12.5" cy="10.5" r="1.5"/><path d="M92,96H8c-2.2,0-4-1.8-4-4V8c0-2.2,1.8-4,4-4h84c2.2,0,4,1.8,4,4v84C96,94.2,94.2,96,92,96z M8,6C6.9,6,6,6.9,6,8v84  c0,1.1,0.9,2,2,2h84c1.1,0,2-0.9,2-2V8c0-1.1-0.9-2-2-2H8z"/><rect x="5" y="14" width="90" height="2"/><path d="M58.4,41H41c-0.6,0-1-0.4-1-1s0.4-1,1-1h17.4c0.6,0,1,0.4,1,1S59,41,58.4,41z"/><path d="M83.5,45h-5c-0.3,0-0.5-0.2-0.5-0.5s0.2-0.5,0.5-0.5h5c0.3,0,0.5,0.2,0.5,0.5S83.8,45,83.5,45z"/><path d="M75.5,45h-5c-0.3,0-0.5-0.2-0.5-0.5s0.2-0.5,0.5-0.5h5c0.3,0,0.5,0.2,0.5,0.5S75.8,45,75.5,45z"/><path d="M67.5,45h-5c-0.3,0-0.5-0.2-0.5-0.5s0.2-0.5,0.5-0.5h5c0.3,0,0.5,0.2,0.5,0.5S67.8,45,67.5,45z"/><path d="M19.5,44h-5c-0.3,0-0.5-0.2-0.5-0.5s0.2-0.5,0.5-0.5h5c0.3,0,0.5,0.2,0.5,0.5S19.8,44,19.5,44z"/><path d="M18.5,18h-5c-0.3,0-0.5-0.2-0.5-0.5s0.2-0.5,0.5-0.5h5c0.3,0,0.5,0.2,0.5,0.5S18.8,18,18.5,18z"/><path d="M82.5,18h-3c-0.3,0-0.5-0.2-0.5-0.5s0.2-0.5,0.5-0.5h3c0.3,0,0.5,0.2,0.5,0.5S82.8,18,82.5,18z"/><path d="M76.5,18h-3c-0.3,0-0.5-0.2-0.5-0.5s0.2-0.5,0.5-0.5h3c0.3,0,0.5,0.2,0.5,0.5S76.8,18,76.5,18z"/><path d="M70.5,18h-3c-0.3,0-0.5-0.2-0.5-0.5s0.2-0.5,0.5-0.5h3c0.3,0,0.5,0.2,0.5,0.5S70.8,18,70.5,18z"/><path d="M19.5,54h-5c-0.3,0-0.5-0.2-0.5-0.5s0.2-0.5,0.5-0.5h5c0.3,0,0.5,0.2,0.5,0.5S19.8,54,19.5,54z"/><path d="M83.5,54h-5c-0.3,0-0.5-0.2-0.5-0.5s0.2-0.5,0.5-0.5h5c0.3,0,0.5,0.2,0.5,0.5S83.8,54,83.5,54z"/><path d="M26.5,73.5h-13v-12h13V73.5z M14.5,72.5h11v-10h-11V72.5z"/><path d="M41.5,73.5h-13v-12h13V73.5z M29.5,72.5h11v-10h-11V72.5z"/><path d="M56.5,73.5h-13v-12h13V73.5z M44.5,72.5h11v-10h-11V72.5z"/><path d="M71.5,73.5h-13v-12h13V73.5z M59.5,72.5h11v-10h-11V72.5z"/><path d="M86.5,73.5h-13v-12h13V73.5z M74.5,72.5h11v-10h-11V72.5z"/><path d="M26.5,87.5h-13v-12h13V87.5z M14.5,86.5h11v-10h-11V86.5z"/><path d="M41.5,87.5h-13v-12h13V87.5z M29.5,86.5h11v-10h-11V86.5z"/><path d="M56.5,87.5h-13v-12h13V87.5z M44.5,86.5h11v-10h-11V86.5z"/><path d="M71.5,87.5h-13v-12h13V87.5z M59.5,86.5h11v-10h-11V86.5z"/><path d="M86.5,87.5h-13v-12h13V87.5z M74.5,86.5h11v-10h-11V86.5z"/><path d="M50,24c-3.4,0-6,2.7-6,6c0,3.4,2.7,6,6,6c3.4,0,6-2.7,6-6C56,26.7,53.3,24,50,24z M50,33h-2.9c0,0,0-0.5,0.2-1  c0.2-0.4,1-0.6,1.9-1v-0.8c0,0-0.3-0.2-0.3-0.7c-0.2,0-0.2-0.5,0-0.6c0-0.1-0.5-1.3,0.2-1.3c0.2-0.5,1.9-0.5,2,0.2  c0.1,0.4-0.2,1-0.2,1.1c0.2,0.2,0.2,0.6,0,0.6c0,0.5-0.3,0.8-0.3,0.8V31c1,0.4,1.8,0.6,1.9,1c0.2,0.5,0.2,1,0.2,1H50z"/><rect x="5" y="47.5" width="90" height="1"/><rect x="5" y="19.5" width="90" height="1"/><text x="0" y="115" fill="#000000" font-size="5px" font-weight="bold" font-family="'Helvetica Neue', Helvetica, Arial-Unicode, Arial, Sans-serif">Created by buzzyrobot</text><text x="0" y="120" fill="#000000" font-size="5px" font-weight="bold" font-family="'Helvetica Neue', Helvetica, Arial-Unicode, Arial, Sans-serif">from the Noun Project</text></svg>