<?xml version="1.0" encoding="utf-8"?>
<!-- Generator: Adobe Illustrator 20.1.0, SVG Export Plug-In . SVG Version: 6.00 Build 0)  -->
<svg version="1.1" xmlns="http://www.w3.org/2000/svg" xmlns:xlink="http://www.w3.org/1999/xlink" x="0px" y="0px"
	 viewBox="0 0 90 112.5" style="enable-background:new 0 0 90 112.5;" xml:space="preserve">
<style type="text/css">
	.st0{fill:none;}
	.st1{fill:#805CAA;}
	.st2{fill:#F09EF2;}
	.st3{fill:#EDEF9C;}
</style>
<g id="Camada_1">
	<title>Senza titolo-2</title>
	<polygon class="st0" points="63.3,26.3 61.5,22.6 47.7,22.6 45.9,26.3 54.7,26.2 	"/>
	<path class="st0" d="M56.5,15.5h-4.9V17l1,0c0.6,0,1,0.5,1,1c0,0.6-0.5,1-1,1h0l-1,0v1.4h4.9C56.5,20.5,56.5,15.5,56.5,15.5z"/>
	<path class="st0" d="M41.1,86h19.5V40.5c0-0.6,0.4-1,1-1s1,0.4,1,1V86h5.3V33.8H41.1V86z"/>
	<path class="st0" d="M39.1,19.4c0.3,0.1,0.7,0.2,1,0.2c1.3,0,2.5-0.9,2.7-2.3c-0.1,0.1-0.2,0.1-0.3,0.1c-0.3,0-0.6-0.2-0.6-0.6
		c0-0.3,0.2-0.6,0.6-0.6c0.1,0,0.3,0.1,0.4,0.2c-0.1-1.4-1.3-2.6-2.8-2.6c-0.1,0-0.1,0-0.2,0c-0.4,0.1-0.8,0-1-0.3c0,0-0.1,0-0.1,0
		c-0.3,0-0.6-0.3-0.6-0.6c0,0,0,0,0,0c0-0.2,0.1-0.3,0.2-0.4c-0.3-0.6-0.6-1.1-1-1.6c0,0,0,0.1,0,0.1c0,0.3-0.3,0.6-0.6,0.6
		c-0.3,0-0.6-0.3-0.6-0.6c0-0.3,0.3-0.6,0.6-0.6c0.1,0,0.1,0,0.2,0c-0.4-0.5-1-0.9-1.5-1.2C35.5,9.9,35.3,10,35,10
		c-0.3,0-0.6-0.3-0.6-0.6c0,0,0,0,0,0c0-0.1,0-0.2,0.1-0.3c-2.1-0.9-4.6-0.7-6.5,0.5C28,9.9,27.8,10,27.5,10c0,0,0,0,0,0
		c-0.5,0.4-0.9,0.8-1.3,1.2c0,0,0,0.1,0,0.1c0,0.3-0.3,0.6-0.6,0.6l0,0c0,0,0,0,0,0c-0.1,0.1-0.3,0.2-0.5,0.2
		c-0.3,0-0.6-0.1-0.8-0.3c-1.5-1.5-3.9-1.8-5.7-0.6c0,0.1,0,0.1,0,0.2c0,0.3-0.3,0.6-0.6,0.6l0,0c-0.1,0-0.2,0-0.3-0.1
		c-0.4,0.4-0.8,0.9-1,1.5c0,0.1,0,0.2-0.1,0.2c-0.4,1-0.4,2.1,0,3.2c0,0.1,0.1,0.1,0.1,0.2c0.1,0.3,0.2,0.5,0.4,0.8
		c0.3,0.5,0.2,1.1-0.3,1.4c0,0,0,0,0,0c-1.9,1.2-3.3,3-3.9,5.1c0.1,0.2,0.1,0.5-0.1,0.7c-0.2,0.9-0.2,1.9-0.1,2.9
		c0.2,0.1,0.3,0.3,0.3,0.5c0,0.1,0,0.2-0.1,0.3c1.1,4.6,5.8,7.5,10.4,6.3c0.6-0.2,1.3-0.4,1.9-0.7c-0.2-0.2-0.2-0.6,0.1-0.8
		c0.2-0.2,0.6-0.2,0.8,0.1c0,0.1,0.1,0.1,0.1,0.2c0.5-0.3,0.9-0.7,1.3-1.1l0,0c-0.3,0-0.6-0.2-0.6-0.6c0-0.3,0.2-0.6,0.6-0.6
		c0.3,0,0.5,0.2,0.6,0.5c0.4-0.4,0.7-0.9,0.9-1.4c-0.2-0.2-0.2-0.6,0-0.8c0.1-0.1,0.3-0.2,0.4-0.2c0,0,0,0,0,0c0.4-1,0.6-2,0.6-3
		c0-0.7-0.1-1.5-0.3-2.2c-0.1-0.5,0.2-1.1,0.7-1.2c0.1,0,0.3,0,0.4,0c0.3,0,0.7,0.1,1,0.1c0.3,0,0.7,0,1-0.1
		c-0.1-0.1-0.2-0.3-0.2-0.4c0-0.3,0.2-0.6,0.5-0.6s0.6,0.2,0.6,0.5c0,0,0,0,0,0c0,0.1,0,0.2-0.1,0.3c1.7-0.4,3.3-1.5,4.3-3
		C38.1,19.4,38.6,19.3,39.1,19.4z M40.6,14.5c0.3,0,0.6,0.3,0.6,0.6s-0.3,0.6-0.6,0.6c-0.3,0-0.6-0.3-0.6-0.6S40.3,14.5,40.6,14.5
		L40.6,14.5z M40.6,18.3c0.3,0,0.6,0.3,0.6,0.6s-0.3,0.6-0.6,0.6s-0.6-0.3-0.6-0.6S40.3,18.3,40.6,18.3L40.6,18.3z M14.4,30.6
		c-0.3,0-0.6-0.3-0.6-0.6c0-0.3,0.3-0.6,0.6-0.6c0.3,0,0.6,0.3,0.6,0.6c0,0,0,0,0,0C15,30.4,14.7,30.6,14.4,30.6
		C14.4,30.6,14.4,30.6,14.4,30.6z M14.4,26.9c-0.3,0-0.6-0.3-0.6-0.6c0-0.3,0.3-0.6,0.6-0.6c0.3,0,0.6,0.3,0.6,0.6c0,0,0,0,0,0
		C15,26.6,14.7,26.9,14.4,26.9C14.4,26.9,14.4,26.9,14.4,26.9z M14.4,23.1c-0.3,0-0.6-0.3-0.6-0.6c0-0.3,0.3-0.6,0.6-0.6
		c0.3,0,0.6,0.3,0.6,0.6c0,0,0,0,0,0C15,22.9,14.7,23.1,14.4,23.1C14.4,23.1,14.4,23.1,14.4,23.1z M16.3,32.5
		c-0.3,0-0.6-0.3-0.6-0.6c0-0.3,0.3-0.6,0.6-0.6c0.3,0,0.6,0.3,0.6,0.6C16.9,32.2,16.6,32.5,16.3,32.5
		C16.3,32.5,16.3,32.5,16.3,32.5L16.3,32.5z M16.3,28.7c-0.3,0-0.6-0.3-0.6-0.6c0-0.3,0.3-0.6,0.6-0.6c0.3,0,0.6,0.3,0.6,0.6
		C16.9,28.5,16.6,28.7,16.3,28.7L16.3,28.7z M16.3,25c-0.3,0-0.6-0.3-0.6-0.6c0-0.3,0.3-0.6,0.6-0.6c0.3,0,0.6,0.3,0.6,0.6
		C16.9,24.7,16.6,25,16.3,25C16.3,25,16.3,25,16.3,25L16.3,25z M16.3,21.3c-0.3,0-0.6-0.3-0.6-0.6c0-0.3,0.3-0.6,0.6-0.6
		c0.3,0,0.6,0.3,0.6,0.6C16.9,21,16.6,21.3,16.3,21.3L16.3,21.3z M18.7,34c-0.1,0.3-0.4,0.4-0.7,0.3c-0.3-0.1-0.4-0.4-0.3-0.7
		c0.1-0.3,0.4-0.4,0.7-0.3c0.2,0.1,0.3,0.3,0.3,0.5C18.7,33.9,18.7,33.9,18.7,34L18.7,34z M18.2,30.6c-0.3,0-0.6-0.3-0.6-0.6
		s0.3-0.6,0.6-0.6c0.3,0,0.6,0.3,0.6,0.6C18.7,30.4,18.5,30.6,18.2,30.6C18.2,30.6,18.2,30.6,18.2,30.6L18.2,30.6z M18.2,26.9
		c-0.3,0-0.6-0.3-0.6-0.6s0.3-0.6,0.6-0.6c0.3,0,0.6,0.3,0.6,0.6C18.7,26.6,18.5,26.9,18.2,26.9L18.2,26.9z M18.2,23.1
		c-0.3,0-0.6-0.3-0.6-0.6s0.3-0.6,0.6-0.6c0.3,0,0.6,0.3,0.6,0.6C18.7,22.9,18.5,23.1,18.2,23.1C18.2,23.1,18.2,23.1,18.2,23.1
		L18.2,23.1z M18.7,19c-0.1,0.3-0.4,0.4-0.7,0.3c-0.3-0.1-0.4-0.4-0.3-0.7c0.1-0.3,0.4-0.4,0.7-0.3c0.2,0.1,0.3,0.3,0.3,0.5
		C18.7,18.9,18.7,19,18.7,19L18.7,19z M18.2,15.6c-0.3,0-0.6-0.3-0.6-0.6s0.3-0.6,0.6-0.6c0.3,0,0.6,0.3,0.6,0.6
		C18.7,15.4,18.5,15.6,18.2,15.6L18.2,15.6z M20,32.5c-0.3,0-0.6-0.3-0.6-0.6c0-0.3,0.3-0.6,0.6-0.6c0.3,0,0.6,0.3,0.6,0.6
		C20.6,32.2,20.4,32.5,20,32.5L20,32.5z M20,28.7c-0.3,0-0.6-0.3-0.6-0.6c0-0.3,0.3-0.6,0.6-0.6c0.3,0,0.6,0.3,0.6,0.6
		C20.6,28.5,20.4,28.7,20,28.7L20,28.7z M20,25c-0.3,0-0.6-0.3-0.6-0.6s0.3-0.6,0.6-0.6c0.3,0,0.6,0.3,0.6,0.6
		C20.6,24.8,20.4,25,20,25L20,25z M20,21.3c-0.3,0-0.6-0.3-0.6-0.6c0-0.3,0.3-0.6,0.6-0.6c0.3,0,0.6,0.3,0.6,0.6
		C20.6,21,20.4,21.3,20,21.3L20,21.3z M20,17.5c-0.3,0-0.6-0.3-0.6-0.6s0.3-0.6,0.6-0.6c0.3,0,0.6,0.3,0.6,0.6
		C20.6,17.3,20.4,17.5,20,17.5L20,17.5z M20,13.8c-0.3,0-0.6-0.3-0.6-0.6c0-0.3,0.3-0.6,0.6-0.6c0.3,0,0.6,0.3,0.6,0.6
		C20.6,13.5,20.4,13.8,20,13.8L20,13.8z M22.4,34c-0.1,0.3-0.5,0.4-0.7,0.3s-0.4-0.5-0.3-0.7c0.1-0.3,0.5-0.4,0.7-0.3
		c0.2,0.1,0.3,0.3,0.3,0.5C22.5,33.9,22.5,33.9,22.4,34L22.4,34z M22.4,30.3c-0.1,0.3-0.5,0.4-0.7,0.3s-0.4-0.5-0.3-0.7
		c0.1-0.3,0.5-0.4,0.7-0.3c0.2,0.1,0.3,0.3,0.3,0.5C22.5,30.1,22.5,30.2,22.4,30.3L22.4,30.3z M22.4,26.5c-0.1,0.3-0.5,0.4-0.7,0.3
		s-0.4-0.5-0.3-0.7c0.1-0.3,0.5-0.4,0.7-0.3c0.2,0.1,0.3,0.3,0.3,0.5C22.5,26.4,22.5,26.5,22.4,26.5L22.4,26.5z M22.4,22.8
		c-0.1,0.3-0.5,0.4-0.7,0.3s-0.4-0.5-0.3-0.7c0.1-0.3,0.5-0.4,0.7-0.3c0.2,0.1,0.3,0.3,0.3,0.5C22.5,22.6,22.5,22.7,22.4,22.8
		L22.4,22.8z M22.4,19c-0.1,0.3-0.5,0.4-0.7,0.3s-0.4-0.5-0.3-0.7c0.1-0.3,0.5-0.4,0.7-0.3c0.2,0.1,0.3,0.3,0.3,0.5
		C22.5,18.9,22.5,19,22.4,19L22.4,19z M22.4,15.3c-0.1,0.3-0.5,0.4-0.7,0.3s-0.4-0.5-0.3-0.7c0.1-0.3,0.5-0.4,0.7-0.3
		c0.2,0.1,0.3,0.3,0.3,0.5C22.5,15.2,22.5,15.2,22.4,15.3L22.4,15.3z M22.4,11.6c-0.1,0.3-0.5,0.4-0.7,0.3s-0.4-0.5-0.3-0.7
		c0.1-0.3,0.5-0.4,0.7-0.3c0.2,0.1,0.3,0.3,0.3,0.5C22.5,11.4,22.5,11.5,22.4,11.6L22.4,11.6z M23.8,32.5c-0.3,0-0.6-0.3-0.6-0.6
		c0-0.3,0.3-0.6,0.6-0.6c0.3,0,0.6,0.3,0.6,0.6C24.4,32.2,24.1,32.5,23.8,32.5L23.8,32.5z M23.8,28.7c-0.3,0-0.6-0.3-0.6-0.6
		c0-0.3,0.3-0.6,0.6-0.6c0.3,0,0.6,0.3,0.6,0.6C24.4,28.5,24.1,28.7,23.8,28.7L23.8,28.7z M23.8,25c-0.3,0-0.6-0.3-0.6-0.6
		s0.3-0.6,0.6-0.6c0.3,0,0.6,0.3,0.6,0.6C24.4,24.8,24.1,25,23.8,25L23.8,25z M23.8,21.3c-0.3,0-0.6-0.3-0.6-0.6
		c0-0.3,0.3-0.6,0.6-0.6c0.3,0,0.6,0.3,0.6,0.6C24.4,21,24.1,21.3,23.8,21.3L23.8,21.3z M23.8,17.5c-0.3,0-0.6-0.3-0.6-0.6
		s0.3-0.6,0.6-0.6c0.3,0,0.6,0.3,0.6,0.6C24.4,17.3,24.1,17.5,23.8,17.5L23.8,17.5z M23.8,13.8c-0.3,0-0.6-0.3-0.6-0.6
		c0-0.3,0.3-0.6,0.6-0.6c0.3,0,0.6,0.3,0.6,0.6C24.4,13.5,24.1,13.8,23.8,13.8L23.8,13.8z M25.7,30.6c-0.3,0-0.6-0.3-0.6-0.6
		s0.3-0.6,0.6-0.6c0.3,0,0.6,0.3,0.6,0.6C26.2,30.4,26,30.6,25.7,30.6L25.7,30.6z M25.7,26.9c-0.3,0-0.6-0.3-0.6-0.6
		s0.3-0.6,0.6-0.6c0.3,0,0.6,0.3,0.6,0.6C26.2,26.6,26,26.9,25.7,26.9L25.7,26.9z M25.7,23.1c-0.3,0-0.6-0.3-0.6-0.6
		s0.3-0.6,0.6-0.6c0.3,0,0.6,0.3,0.6,0.6C26.2,22.9,26,23.1,25.7,23.1L25.7,23.1z M26.2,19c-0.1,0.3-0.4,0.4-0.7,0.3
		c-0.3-0.1-0.4-0.4-0.3-0.7c0.1-0.3,0.4-0.4,0.7-0.3c0.2,0.1,0.3,0.3,0.3,0.5C26.2,18.9,26.2,19,26.2,19L26.2,19z M25.7,15.6
		c-0.3,0-0.6-0.3-0.6-0.6s0.3-0.6,0.6-0.6c0.3,0,0.6,0.3,0.6,0.6C26.2,15.4,26,15.6,25.7,15.6L25.7,15.6z M27.5,28.7
		c-0.3,0-0.6-0.3-0.6-0.6c0-0.3,0.3-0.6,0.6-0.6c0.3,0,0.6,0.3,0.6,0.6C28.1,28.5,27.8,28.7,27.5,28.7L27.5,28.7z M27.5,25
		c-0.3,0-0.6-0.3-0.6-0.6s0.3-0.6,0.6-0.6c0.3,0,0.6,0.3,0.6,0.6C28.1,24.8,27.8,25,27.5,25L27.5,25z M27.5,21.3
		c-0.3,0-0.6-0.3-0.6-0.6c0-0.3,0.3-0.6,0.6-0.6c0.3,0,0.6,0.3,0.6,0.6c0,0,0,0,0,0C28.1,21,27.8,21.3,27.5,21.3L27.5,21.3z
		 M27.5,17.5c-0.3,0-0.6-0.3-0.6-0.6s0.3-0.6,0.6-0.6c0.3,0,0.6,0.2,0.6,0.6C28.1,17.3,27.8,17.5,27.5,17.5
		C27.5,17.5,27.5,17.5,27.5,17.5L27.5,17.5z M27.5,13.8c-0.3,0-0.6-0.3-0.6-0.6c0-0.3,0.3-0.6,0.6-0.6c0.3,0,0.6,0.3,0.6,0.6
		C28.1,13.5,27.8,13.8,27.5,13.8L27.5,13.8z M30,26.3c0,0.3-0.3,0.6-0.6,0.6c-0.3,0-0.6-0.3-0.6-0.6c0-0.3,0.3-0.6,0.6-0.6
		c0,0,0,0,0,0C29.7,25.8,30,26,30,26.3L30,26.3z M29.4,23.1c-0.3,0-0.6-0.3-0.6-0.6c0-0.3,0.3-0.6,0.6-0.6c0.3,0,0.6,0.3,0.6,0.6
		c0,0,0,0,0,0C30,22.9,29.7,23.1,29.4,23.1L29.4,23.1z M29.9,19c-0.1,0.3-0.4,0.4-0.7,0.3c-0.3-0.1-0.4-0.4-0.3-0.7
		c0.1-0.3,0.4-0.4,0.7-0.3c0.2,0.1,0.3,0.3,0.3,0.5C30,18.9,30,19,29.9,19L29.9,19z M29.4,15.6c-0.3,0-0.6-0.3-0.6-0.6
		c0-0.3,0.3-0.6,0.6-0.6c0.3,0,0.6,0.3,0.6,0.6c0,0,0,0,0,0C30,15.4,29.7,15.6,29.4,15.6L29.4,15.6z M29.4,11.9
		c-0.3,0-0.6-0.3-0.6-0.6c0-0.3,0.3-0.6,0.6-0.6c0.3,0,0.6,0.3,0.6,0.6c0,0,0,0,0,0C30,11.6,29.7,11.9,29.4,11.9L29.4,11.9z
		 M31.3,21.3c-0.3,0-0.6-0.3-0.6-0.6c0-0.3,0.3-0.6,0.6-0.6c0.3,0,0.6,0.3,0.6,0.6C31.8,21,31.6,21.3,31.3,21.3L31.3,21.3z
		 M31.3,17.5c-0.3,0-0.6-0.3-0.6-0.6s0.3-0.6,0.6-0.6c0.3,0,0.6,0.3,0.6,0.6C31.8,17.3,31.6,17.5,31.3,17.5L31.3,17.5z M31.3,13.8
		c-0.3,0-0.6-0.3-0.6-0.6c0-0.3,0.3-0.6,0.6-0.6c0.3,0,0.6,0.3,0.6,0.6C31.8,13.5,31.6,13.8,31.3,13.8L31.3,13.8z M31.3,10
		c-0.3,0-0.6-0.3-0.6-0.6s0.3-0.6,0.6-0.6c0.3,0,0.6,0.3,0.6,0.6C31.8,9.8,31.6,10,31.3,10L31.3,10z M33.7,19
		c-0.1,0.3-0.4,0.4-0.7,0.3c-0.3-0.1-0.4-0.4-0.3-0.7c0.1-0.3,0.4-0.4,0.7-0.3c0.2,0.1,0.3,0.3,0.3,0.5C33.7,18.9,33.7,19,33.7,19
		L33.7,19z M33.2,15.6c-0.3,0-0.6-0.3-0.6-0.6s0.3-0.6,0.6-0.6c0.3,0,0.6,0.3,0.6,0.6C33.7,15.4,33.5,15.6,33.2,15.6L33.2,15.6z
		 M33.2,11.9c-0.3,0-0.6-0.3-0.6-0.6s0.3-0.6,0.6-0.6c0.3,0,0.6,0.3,0.6,0.6C33.7,11.7,33.5,11.9,33.2,11.9L33.2,11.9z M35,21.3
		c-0.3,0-0.6-0.3-0.6-0.6c0-0.3,0.3-0.6,0.6-0.6c0.3,0,0.6,0.3,0.6,0.6C35.6,21,35.3,21.3,35,21.3L35,21.3z M35,17.5
		c-0.3,0-0.6-0.3-0.6-0.6s0.3-0.6,0.6-0.6c0.3,0,0.6,0.3,0.6,0.6C35.6,17.3,35.3,17.5,35,17.5L35,17.5z M35,13.8
		c-0.3,0-0.6-0.3-0.6-0.6c0-0.3,0.3-0.6,0.6-0.6c0.3,0,0.6,0.3,0.6,0.6C35.6,13.5,35.3,13.8,35,13.8L35,13.8z M37.4,19
		c-0.1,0.3-0.4,0.4-0.7,0.3c-0.3-0.1-0.4-0.4-0.3-0.7c0.1-0.3,0.4-0.4,0.7-0.3c0.2,0.1,0.3,0.3,0.3,0.5C37.5,18.9,37.4,19,37.4,19
		L37.4,19z M36.9,15.6c-0.3,0-0.6-0.3-0.6-0.6c0-0.3,0.3-0.6,0.6-0.6c0.3,0,0.6,0.3,0.6,0.6c0,0,0,0,0,0
		C37.5,15.4,37.2,15.6,36.9,15.6z M38.2,16.9c0-0.3,0.3-0.6,0.6-0.6s0.6,0.3,0.6,0.6c0,0.3-0.3,0.6-0.6,0.6
		C38.5,17.5,38.2,17.3,38.2,16.9C38.2,17,38.2,17,38.2,16.9L38.2,16.9z"/>
	<path class="st1" d="M67.8,31.8L67.8,31.8c0-0.1,0-0.1,0-0.2v-3.4c0-1-0.8-1.9-1.9-1.9h-0.4L63,21.2c-0.2-0.3-0.5-0.6-0.9-0.6h-3.7
		v-6.1c0-0.6-0.4-1-1-1h-6.9c-0.6,0-1,0.4-1,1v6.1h-2.5c-0.4,0-0.7,0.2-0.9,0.6l-2.5,5.2h-0.8c-1,0-1.9,0.8-1.9,1.9v3.4
		c0,0.1,0,0.1,0,0.2c-1.1,0-1.9,0.9-1.9,2V86c0,1.1,0.9,2,2,2h26.7c1.1,0,2-0.9,2-2V33.8C69.8,32.7,68.9,31.8,67.8,31.8z M51.6,19
		l1,0h0c0.6,0,1-0.4,1-1c0-0.6-0.4-1-1-1l-1,0v-1.5h4.9v4.9h-4.9V19z M47.7,22.6h13.8l1.8,3.7l-8.6-0.1l-8.8,0.1L47.7,22.6z
		 M67.8,86h-5.3V40.5c0-0.6-0.4-1-1-1s-1,0.4-1,1V86H41.1V33.8h26.7L67.8,86z"/>
	<path class="st2" d="M39.1,21.5c2.6,0.5,5.2-1.1,5.7-3.7c0.1-0.3,0.1-0.7,0.1-1c0-2.6-2.1-4.7-4.7-4.8C38.2,7.3,32.7,5.3,28,7.4
		c-1.2,0.5-2.2,1.3-3.1,2.3c-3-2.1-7.1-1.4-9.2,1.6c-1.4,1.9-1.6,4.5-0.6,6.6c-4.7,3.5-5.8,10.1-2.3,14.9s10.1,5.8,14.9,2.3
		c3.1-2.3,4.8-6.1,4.3-10C34.7,25,37.4,23.7,39.1,21.5z M37.9,19.8c-1,1.5-2.5,2.6-4.3,3c0.1-0.1,0.1-0.2,0.1-0.3
		c0-0.3-0.2-0.6-0.5-0.6s-0.6,0.2-0.6,0.5c0,0,0,0,0,0c0,0.2,0.1,0.3,0.2,0.4c-0.3,0-0.7,0.1-1,0.1c-0.3,0-0.7,0-1-0.1
		c-0.5-0.1-1.1,0.3-1.1,0.8c0,0.1,0,0.3,0,0.4c0.2,0.7,0.3,1.5,0.3,2.2c0,1-0.2,2.1-0.6,3c0,0,0,0,0,0c-0.3,0-0.6,0.2-0.6,0.6
		c0,0.2,0.1,0.3,0.2,0.4c-0.3,0.5-0.6,1-0.9,1.4c0-0.3-0.3-0.5-0.6-0.5c-0.3,0-0.5,0.3-0.5,0.6c0,0.3,0.3,0.5,0.6,0.5l0,0
		c-0.4,0.4-0.9,0.8-1.3,1.1c-0.1-0.3-0.4-0.5-0.7-0.4c-0.3,0.1-0.5,0.4-0.4,0.7c0,0.1,0.1,0.2,0.1,0.2c-4.2,2.1-9.4,0.4-11.5-3.8
		c-0.3-0.6-0.5-1.2-0.7-1.8c0.1-0.1,0.1-0.2,0.1-0.3c0-0.2-0.1-0.4-0.3-0.5c-0.2-1-0.1-1.9,0.1-2.9c0.2-0.2,0.3-0.4,0.1-0.7
		c0.6-2.1,2-4,3.9-5.1c0.5-0.3,0.6-0.9,0.3-1.4c0,0,0,0,0,0c-0.2-0.2-0.3-0.5-0.4-0.8c0-0.1,0-0.1-0.1-0.2c-0.4-1-0.4-2.1,0-3.2
		c0-0.1,0.1-0.1,0.1-0.2c0.2-0.6,0.6-1.1,1-1.5c0.1,0.1,0.2,0.1,0.3,0.1c0.3,0,0.6-0.3,0.6-0.6c0,0,0,0,0,0c0-0.1,0-0.1,0-0.2
		c1.8-1.1,4.2-0.9,5.7,0.6c0.2,0.2,0.5,0.3,0.8,0.3c0.2,0,0.3-0.1,0.5-0.2c0,0,0,0,0,0c0.3,0,0.6-0.3,0.6-0.6c0,0,0,0,0,0
		c0,0,0-0.1,0-0.1c0.4-0.5,0.8-0.9,1.3-1.2c0,0,0,0,0,0c0.2,0,0.5-0.2,0.5-0.4c2-1.2,4.4-1.4,6.5-0.5c-0.1,0.1-0.1,0.2-0.1,0.3
		c0,0.3,0.3,0.6,0.6,0.6l0,0c0.3,0,0.5-0.2,0.5-0.4c0.6,0.3,1.1,0.7,1.5,1.2c-0.1,0-0.1,0-0.2,0c-0.3,0-0.6,0.3-0.6,0.6
		c0,0.3,0.3,0.6,0.6,0.6c0.3,0,0.6-0.3,0.6-0.6c0,0,0,0,0,0c0,0,0-0.1,0-0.1c0.4,0.5,0.7,1,1,1.6c-0.1,0.1-0.2,0.3-0.2,0.4
		c0,0.3,0.3,0.6,0.6,0.6c0,0,0,0,0,0c0,0,0.1,0,0.1,0c0.3,0.3,0.7,0.4,1,0.3c0.1,0,0.1,0,0.2,0c1.4,0,2.7,1.1,2.8,2.6
		c-0.2-0.2-0.6-0.2-0.8,0c-0.2,0.2-0.2,0.6,0,0.8c0.1,0.1,0.2,0.2,0.4,0.2c0.1,0,0.3,0,0.3-0.1c-0.3,1.3-1.4,2.3-2.7,2.3
		c-0.4,0-0.7-0.1-1-0.2C38.7,19.3,38.1,19.4,37.9,19.8z"/>
</g>
<g id="Camada_2">
	<circle class="st3" cx="40.6" cy="15.1" r="0.6"/>
	<circle class="st3" cx="38.8" cy="17" r="0.6"/>
	<path class="st3" d="M36.9,18.3c-0.3,0-0.6,0.3-0.6,0.6c0,0.3,0.3,0.6,0.6,0.6c0.3,0,0.6-0.3,0.6-0.6c0,0,0,0,0,0
		C37.5,18.5,37.2,18.3,36.9,18.3z"/>
	<path class="st3" d="M40.6,19.4c0.3,0,0.6-0.3,0.6-0.6c0-0.3-0.3-0.6-0.6-0.6c-0.3,0-0.6,0.3-0.6,0.6c0,0.1,0,0.1,0,0.2
		C40.2,19.3,40.4,19.4,40.6,19.4z"/>
	<circle class="st3" cx="31.3" cy="9.5" r="0.6"/>
	<path class="st3" d="M33.2,18.3c-0.3,0-0.6,0.3-0.6,0.6s0.3,0.6,0.6,0.6s0.6-0.3,0.6-0.6S33.5,18.3,33.2,18.3L33.2,18.3z"/>
	<circle class="st3" cx="36.9" cy="15.1" r="0.6"/>
	<circle class="st3" cx="33.2" cy="15.1" r="0.6"/>
	<circle class="st3" cx="31.3" cy="17" r="0.6"/>
	<circle class="st3" cx="35" cy="17" r="0.6"/>
	<circle class="st3" cx="31.3" cy="13.2" r="0.6"/>
	<circle class="st3" cx="35" cy="13.2" r="0.6"/>
	<path class="st3" d="M29.4,18.3c-0.3,0-0.6,0.3-0.6,0.6c0,0.3,0.3,0.6,0.6,0.6c0.3,0,0.6-0.3,0.6-0.6c0,0,0,0,0,0
		C30,18.5,29.7,18.3,29.4,18.3z"/>
	<circle class="st3" cx="29.4" cy="15.1" r="0.6"/>
	<circle class="st3" cx="33.2" cy="11.3" r="0.6"/>
	<circle class="st3" cx="31.3" cy="20.7" r="0.6"/>
	<circle class="st3" cx="35" cy="20.7" r="0.6"/>
	<circle class="st3" cx="29.4" cy="26.3" r="0.6"/>
	<circle class="st3" cx="29.4" cy="22.6" r="0.6"/>
	<circle class="st3" cx="25.7" cy="15.1" r="0.6"/>
	<circle class="st3" cx="23.8" cy="17" r="0.6"/>
	<circle class="st3" cx="27.5" cy="17" r="0.6"/>
	<circle class="st3" cx="23.8" cy="13.2" r="0.6"/>
	<circle class="st3" cx="27.5" cy="13.2" r="0.6"/>
	<path class="st3" d="M21.9,14.5c-0.3,0-0.6,0.3-0.6,0.6c0,0.3,0.3,0.6,0.6,0.6c0.3,0,0.6-0.3,0.6-0.6c0-0.1,0-0.1,0-0.2
		C22.4,14.7,22.1,14.5,21.9,14.5z"/>
	<circle class="st3" cx="29.4" cy="11.3" r="0.6"/>
	<circle class="st3" cx="25.7" cy="26.3" r="0.6"/>
	<circle class="st3" cx="25.7" cy="22.6" r="0.6"/>
	<circle class="st3" cx="23.8" cy="24.4" r="0.6"/>
	<circle class="st3" cx="27.5" cy="24.4" r="0.6"/>
	<circle class="st3" cx="23.8" cy="20.7" r="0.6"/>
	<circle class="st3" cx="27.5" cy="20.7" r="0.6"/>
	<path class="st3" d="M21.9,22c-0.3,0-0.6,0.3-0.6,0.6s0.3,0.6,0.6,0.6s0.6-0.3,0.6-0.6c0-0.1,0-0.1,0-0.2
		C22.4,22.1,22.1,22,21.9,22z"/>
	<path class="st3" d="M25.7,18.3c-0.3,0-0.6,0.3-0.6,0.6s0.3,0.6,0.6,0.6c0.3,0,0.6-0.3,0.6-0.6S26,18.3,25.7,18.3L25.7,18.3z"/>
	<circle class="st3" cx="25.7" cy="30.1" r="0.6"/>
	<circle class="st3" cx="23.8" cy="31.9" r="0.6"/>
	<circle class="st3" cx="23.8" cy="28.2" r="0.6"/>
	<circle class="st3" cx="27.5" cy="28.2" r="0.6"/>
	<path class="st3" d="M21.9,33.2c-0.3,0-0.6,0.3-0.6,0.6c0,0.3,0.3,0.6,0.6,0.6s0.6-0.3,0.6-0.6c0-0.1,0-0.1,0-0.2
		C22.4,33.4,22.1,33.2,21.9,33.2z"/>
	<path class="st3" d="M21.9,29.5c-0.3,0-0.6,0.3-0.6,0.6s0.3,0.6,0.6,0.6s0.6-0.3,0.6-0.6c0-0.1,0-0.1,0-0.2
		C22.4,29.6,22.1,29.5,21.9,29.5z"/>
	<path class="st3" d="M21.9,25.7c-0.3,0-0.6,0.3-0.6,0.6s0.3,0.6,0.6,0.6s0.6-0.3,0.6-0.6c0-0.1,0-0.1,0-0.2
		C22.4,25.9,22.1,25.7,21.9,25.7z"/>
	<circle class="st3" cx="18.2" cy="15.1" r="0.6"/>
	<circle class="st3" cx="20" cy="17" r="0.6"/>
	<circle class="st3" cx="20" cy="13.2" r="0.6"/>
	<path class="st3" d="M21.9,10.8c-0.3,0-0.6,0.3-0.6,0.6c0,0.3,0.3,0.6,0.6,0.6c0.3,0,0.6-0.3,0.6-0.6c0-0.1,0-0.1,0-0.2
		C22.4,10.9,22.1,10.8,21.9,10.8z"/>
	<circle class="st3" cx="18.2" cy="26.3" r="0.6"/>
	<circle class="st3" cx="18.2" cy="22.6" r="0.6"/>
	<circle class="st3" cx="16.3" cy="24.4" r="0.6"/>
	<circle class="st3" cx="20" cy="24.4" r="0.6"/>
	<circle class="st3" cx="16.3" cy="20.7" r="0.6"/>
	<circle class="st3" cx="20" cy="20.7" r="0.6"/>
	<path class="st3" d="M14.4,25.7c-0.3,0-0.6,0.3-0.6,0.6c0,0.3,0.3,0.6,0.6,0.6c0.3,0,0.6-0.3,0.6-0.6c0,0,0,0,0,0
		C15,26,14.7,25.8,14.4,25.7C14.4,25.7,14.4,25.7,14.4,25.7z"/>
	<path class="st3" d="M21.9,18.3c-0.3,0-0.6,0.3-0.6,0.6s0.3,0.6,0.6,0.6s0.6-0.3,0.6-0.6c0-0.1,0-0.1,0-0.2
		C22.4,18.4,22.1,18.3,21.9,18.3z"/>
	<path class="st3" d="M18.2,18.3c-0.3,0-0.6,0.3-0.6,0.6s0.3,0.6,0.6,0.6c0.3,0,0.6-0.3,0.6-0.6S18.5,18.3,18.2,18.3L18.2,18.3z"/>
	<path class="st3" d="M18.2,33.2c-0.3,0-0.6,0.3-0.6,0.6s0.3,0.6,0.6,0.6c0.3,0,0.6-0.3,0.6-0.6S18.5,33.2,18.2,33.2L18.2,33.2z"/>
	<circle class="st3" cx="18.2" cy="30.1" r="0.6"/>
	<circle class="st3" cx="16.3" cy="31.9" r="0.6"/>
	<circle class="st3" cx="20" cy="31.9" r="0.6"/>
	<circle class="st3" cx="16.3" cy="28.2" r="0.6"/>
	<circle class="st3" cx="20" cy="28.2" r="0.6"/>
	<path class="st3" d="M14.4,29.5c-0.3,0-0.6,0.3-0.6,0.6c0,0.3,0.3,0.6,0.6,0.6c0.3,0,0.6-0.3,0.6-0.6c0,0,0,0,0,0
		C15,29.7,14.7,29.5,14.4,29.5C14.4,29.5,14.4,29.5,14.4,29.5z"/>
	<path class="st3" d="M14.4,22c-0.3,0-0.6,0.3-0.6,0.6c0,0.3,0.3,0.6,0.6,0.6c0.3,0,0.6-0.3,0.6-0.6c0,0,0,0,0,0
		C15,22.3,14.7,22,14.4,22C14.4,22,14.4,22,14.4,22z"/>
</g>
</svg>
